<?xml version="1.0" encoding="UTF-8"?>
<svg id="Layer_1" data-name="Layer 1" xmlns="http://www.w3.org/2000/svg" viewBox="0 0 930 337">
  <defs>
    <style>
      .cls-1 {
        fill: #000;
        stroke-width: 0px;
      }
    </style>
  </defs>
  <path class="cls-1" d="M215.16984,70.74371h28.95055l1.17288,38.33982c7.43364-26.21217,23.86516-38.33982,49.29459-38.33982h20.34279v31.29756h-19.95142c-31.29756,0-46.94758,16.8229-46.94758,50.85884v125.19023h-32.86181V70.74371Z"/>
  <path class="cls-1" d="M343.70249.32483h32.86306v181.91721l100.93369-111.49833h43.81658l-81.76502,88.02454,85.28616,119.32209h-39.90408l-67.68174-97.02243-40.68558,43.03383v53.9886h-32.86306V.32483Z"/>
  <path class="cls-1" d="M559.13202,307.8224h23.86392c14.4759,0,20.34403-4.30264,24.25654-14.08328l7.43239-19.56128h-11.3449l-75.89689-203.43412h35.99281l61.81237,172.91932,59.07398-172.91932h35.99281l-84.11203,233.5588c-7.82501,22.29842-22.29967,32.47044-50.07609,32.47044h-26.99492v-28.95055Z"/>
  <path class="cls-1" d="M737.52064,70.74371h35.99157l60.24687,173.70207,60.24935-173.70207h35.99157l-75.50676,207.34663h-41.46833l-75.50427-207.34663Z"/>
  <path class="cls-1" d="M192.18413,278.43952h-35.99157s-60.24687-173.70207-60.24687-173.70207l-60.24935,173.70207H-.29523S75.21153,71.09289,75.21153,71.09289h41.46833s75.50427,207.34663,75.50427,207.34663Z"/>
</svg>